<svg id="visual" viewBox="0 0 960 540" width="960" height="540" xmlns="http://www.w3.org/2000/svg" xmlns:xlink="http://www.w3.org/1999/xlink" version="1.1"><g stroke-width="1" stroke-linejoin="bevel"><path d="M508 292L433 273L480 313Z" fill="#072a3a" stroke="#072a3a"></path><path d="M508 292L460 216L433 273Z" fill="#00101c" stroke="#00101c"></path><path d="M433 273L441 333L480 313Z" fill="#072432" stroke="#072432"></path><path d="M508 292L514 195L460 216Z" fill="#00101c" stroke="#00101c"></path><path d="M508 292L558 243L514 195Z" fill="#051723" stroke="#051723"></path><path d="M441 333L476 365L480 313Z" fill="#00101c" stroke="#00101c"></path><path d="M480 313L522 375L508 292Z" fill="#051723" stroke="#051723"></path><path d="M508 292L598 274L558 243Z" fill="#024756" stroke="#024756"></path><path d="M399 163L386 232L460 216Z" fill="#051723" stroke="#051723"></path><path d="M460 216L386 232L433 273Z" fill="#051723" stroke="#051723"></path><path d="M433 273L377 354L441 333Z" fill="#00101c" stroke="#00101c"></path><path d="M476 365L522 375L480 313Z" fill="#051723" stroke="#051723"></path><path d="M377 354L437 392L441 333Z" fill="#072a3a" stroke="#072a3a"></path><path d="M441 333L437 392L476 365Z" fill="#072a3a" stroke="#072a3a"></path><path d="M476 365L508 412L522 375Z" fill="#072432" stroke="#072432"></path><path d="M328 290L377 354L433 273Z" fill="#061d2b" stroke="#061d2b"></path><path d="M608 166L516 157L514 195Z" fill="#024756" stroke="#024756"></path><path d="M514 195L516 157L460 216Z" fill="#014e5d" stroke="#014e5d"></path><path d="M522 375L598 274L508 292Z" fill="#024756" stroke="#024756"></path><path d="M558 243L608 166L514 195Z" fill="#051723" stroke="#051723"></path><path d="M489 110L399 163L460 216Z" fill="#033f4f" stroke="#033f4f"></path><path d="M631 337L607 266L598 274Z" fill="#024756" stroke="#024756"></path><path d="M598 274L607 266L558 243Z" fill="#053848" stroke="#053848"></path><path d="M437 392L508 412L476 365Z" fill="#00101c" stroke="#00101c"></path><path d="M621 362L631 337L598 274Z" fill="#024756" stroke="#024756"></path><path d="M292 249L328 290L386 232Z" fill="#00101c" stroke="#00101c"></path><path d="M386 232L328 290L433 273Z" fill="#024756" stroke="#024756"></path><path d="M292 249L323 294L328 290Z" fill="#051723" stroke="#051723"></path><path d="M328 290L323 294L377 354Z" fill="#00101c" stroke="#00101c"></path><path d="M533 455L525 417L508 412Z" fill="#024756" stroke="#024756"></path><path d="M508 412L525 417L522 375Z" fill="#051723" stroke="#051723"></path><path d="M377 354L411 416L437 392Z" fill="#051723" stroke="#051723"></path><path d="M437 392L486 494L508 412Z" fill="#033f4f" stroke="#033f4f"></path><path d="M361 452L411 416L377 354Z" fill="#00101c" stroke="#00101c"></path><path d="M399 163L345 185L386 232Z" fill="#005663" stroke="#005663"></path><path d="M537 105L489 110L516 157Z" fill="#053848" stroke="#053848"></path><path d="M516 157L489 110L460 216Z" fill="#053848" stroke="#053848"></path><path d="M399 163L387 113L345 185Z" fill="#072a3a" stroke="#072a3a"></path><path d="M621 362L598 274L522 375Z" fill="#024756" stroke="#024756"></path><path d="M618 413L621 362L522 375Z" fill="#024756" stroke="#024756"></path><path d="M638 222L558 243L607 266Z" fill="#024756" stroke="#024756"></path><path d="M638 222L608 166L558 243Z" fill="#014e5d" stroke="#014e5d"></path><path d="M674 278L638 222L607 266Z" fill="#033f4f" stroke="#033f4f"></path><path d="M584 128L537 105L516 157Z" fill="#005663" stroke="#005663"></path><path d="M345 185L292 249L386 232Z" fill="#00101c" stroke="#00101c"></path><path d="M424 78L399 163L489 110Z" fill="#072a3a" stroke="#072a3a"></path><path d="M424 78L387 113L399 163Z" fill="#033f4f" stroke="#033f4f"></path><path d="M345 185L261 172L292 249Z" fill="#051723" stroke="#051723"></path><path d="M608 166L584 128L516 157Z" fill="#063141" stroke="#063141"></path><path d="M486 494L533 455L508 412Z" fill="#014e5d" stroke="#014e5d"></path><path d="M525 417L618 413L522 375Z" fill="#00101c" stroke="#00101c"></path><path d="M584 61L507 81L537 105Z" fill="#051723" stroke="#051723"></path><path d="M537 105L507 81L489 110Z" fill="#063141" stroke="#063141"></path><path d="M288 395L307 385L236 375Z" fill="#061d2b" stroke="#061d2b"></path><path d="M323 294L307 385L377 354Z" fill="#061d2b" stroke="#061d2b"></path><path d="M411 416L486 494L437 392Z" fill="#051723" stroke="#051723"></path><path d="M533 455L618 413L525 417Z" fill="#072432" stroke="#072432"></path><path d="M621 362L688 404L631 337Z" fill="#005663" stroke="#005663"></path><path d="M743 332L674 278L631 337Z" fill="#024756" stroke="#024756"></path><path d="M631 337L674 278L607 266Z" fill="#014e5d" stroke="#014e5d"></path><path d="M638 222L643 145L608 166Z" fill="#033f4f" stroke="#033f4f"></path><path d="M507 81L424 78L489 110Z" fill="#014e5d" stroke="#014e5d"></path><path d="M307 385L361 452L377 354Z" fill="#005663" stroke="#005663"></path><path d="M608 166L643 145L584 128Z" fill="#051723" stroke="#051723"></path><path d="M584 128L584 61L537 105Z" fill="#061d2b" stroke="#061d2b"></path><path d="M680 207L643 145L638 222Z" fill="#061d2b" stroke="#061d2b"></path><path d="M674 278L680 207L638 222Z" fill="#072432" stroke="#072432"></path><path d="M334 95L345 185L387 113Z" fill="#063141" stroke="#063141"></path><path d="M334 95L291 153L345 185Z" fill="#072a3a" stroke="#072a3a"></path><path d="M413 498L486 494L411 416Z" fill="#00101c" stroke="#00101c"></path><path d="M533 455L592 488L618 413Z" fill="#00101c" stroke="#00101c"></path><path d="M236 375L307 385L323 294Z" fill="#072432" stroke="#072432"></path><path d="M307 385L304 475L361 452Z" fill="#00101c" stroke="#00101c"></path><path d="M244 270L323 294L292 249Z" fill="#061d2b" stroke="#061d2b"></path><path d="M355 59L334 95L387 113Z" fill="#005663" stroke="#005663"></path><path d="M261 172L244 270L292 249Z" fill="#072432" stroke="#072432"></path><path d="M392 514L413 498L361 452Z" fill="#051723" stroke="#051723"></path><path d="M361 452L413 498L411 416Z" fill="#014e5d" stroke="#014e5d"></path><path d="M214 150L261 172L227 116Z" fill="#014e5d" stroke="#014e5d"></path><path d="M291 153L261 172L345 185Z" fill="#024756" stroke="#024756"></path><path d="M625 83L584 61L584 128Z" fill="#005663" stroke="#005663"></path><path d="M507 81L477 26L424 78Z" fill="#072a3a" stroke="#072a3a"></path><path d="M697 149L625 83L643 145Z" fill="#053848" stroke="#053848"></path><path d="M643 145L625 83L584 128Z" fill="#014e5d" stroke="#014e5d"></path><path d="M556 540L592 488L533 455Z" fill="#072432" stroke="#072432"></path><path d="M618 413L688 404L621 362Z" fill="#061d2b" stroke="#061d2b"></path><path d="M455 0L355 59L424 78Z" fill="#072432" stroke="#072432"></path><path d="M424 78L355 59L387 113Z" fill="#033f4f" stroke="#033f4f"></path><path d="M334 95L302 87L291 153Z" fill="#063141" stroke="#063141"></path><path d="M540 0L477 26L507 81Z" fill="#033f4f" stroke="#033f4f"></path><path d="M682 473L688 404L618 413Z" fill="#033f4f" stroke="#033f4f"></path><path d="M742 210L697 149L680 207Z" fill="#061d2b" stroke="#061d2b"></path><path d="M324 540L392 514L361 452Z" fill="#053848" stroke="#053848"></path><path d="M413 498L508 540L486 494Z" fill="#014e5d" stroke="#014e5d"></path><path d="M486 494L508 540L533 455Z" fill="#00101c" stroke="#00101c"></path><path d="M308 59L302 87L334 95Z" fill="#072432" stroke="#072432"></path><path d="M680 207L697 149L643 145Z" fill="#024756" stroke="#024756"></path><path d="M741 227L680 207L674 278Z" fill="#051723" stroke="#051723"></path><path d="M244 270L236 375L323 294Z" fill="#033f4f" stroke="#033f4f"></path><path d="M288 395L304 475L307 385Z" fill="#051723" stroke="#051723"></path><path d="M236 375L254 416L288 395Z" fill="#061d2b" stroke="#061d2b"></path><path d="M254 416L304 475L288 395Z" fill="#072432" stroke="#072432"></path><path d="M182 201L208 270L244 270Z" fill="#063141" stroke="#063141"></path><path d="M244 270L206 337L236 375Z" fill="#024756" stroke="#024756"></path><path d="M201 271L208 270L182 201Z" fill="#051723" stroke="#051723"></path><path d="M391 540L508 540L413 498Z" fill="#072432" stroke="#072432"></path><path d="M355 59L308 59L334 95Z" fill="#033f4f" stroke="#033f4f"></path><path d="M227 116L261 172L291 153Z" fill="#063141" stroke="#063141"></path><path d="M335 0L308 59L355 59Z" fill="#005663" stroke="#005663"></path><path d="M182 201L244 270L261 172Z" fill="#014e5d" stroke="#014e5d"></path><path d="M208 270L206 337L244 270Z" fill="#063141" stroke="#063141"></path><path d="M754 325L741 227L674 278Z" fill="#063141" stroke="#063141"></path><path d="M201 271L206 337L208 270Z" fill="#072a3a" stroke="#072a3a"></path><path d="M212 493L236 487L163 445Z" fill="#061d2b" stroke="#061d2b"></path><path d="M540 0L465 0L477 26Z" fill="#053848" stroke="#053848"></path><path d="M477 26L455 0L424 78Z" fill="#063141" stroke="#063141"></path><path d="M465 0L455 0L477 26Z" fill="#014e5d" stroke="#014e5d"></path><path d="M732 370L743 332L631 337Z" fill="#061d2b" stroke="#061d2b"></path><path d="M688 404L732 370L631 337Z" fill="#00101c" stroke="#00101c"></path><path d="M744 420L732 370L688 404Z" fill="#024756" stroke="#024756"></path><path d="M762 211L742 210L741 227Z" fill="#024756" stroke="#024756"></path><path d="M741 227L742 210L680 207Z" fill="#072432" stroke="#072432"></path><path d="M324 540L391 540L392 514Z" fill="#051723" stroke="#051723"></path><path d="M392 514L391 540L413 498Z" fill="#014e5d" stroke="#014e5d"></path><path d="M508 540L556 540L533 455Z" fill="#024756" stroke="#024756"></path><path d="M592 488L682 473L618 413Z" fill="#072a3a" stroke="#072a3a"></path><path d="M575 0L540 0L584 61Z" fill="#005663" stroke="#005663"></path><path d="M584 61L540 0L507 81Z" fill="#051723" stroke="#051723"></path><path d="M575 0L584 61L628 0Z" fill="#005663" stroke="#005663"></path><path d="M732 370L754 325L743 332Z" fill="#063141" stroke="#063141"></path><path d="M743 332L754 325L674 278Z" fill="#024756" stroke="#024756"></path><path d="M227 116L291 153L302 87Z" fill="#024756" stroke="#024756"></path><path d="M605 540L682 473L592 488Z" fill="#014e5d" stroke="#014e5d"></path><path d="M732 370L803 317L754 325Z" fill="#061d2b" stroke="#061d2b"></path><path d="M260 37L227 116L302 87Z" fill="#024756" stroke="#024756"></path><path d="M628 0L584 61L625 83Z" fill="#051723" stroke="#051723"></path><path d="M768 223L762 211L741 227Z" fill="#072432" stroke="#072432"></path><path d="M742 210L780 126L697 149Z" fill="#063141" stroke="#063141"></path><path d="M692 0L628 0L625 83Z" fill="#053848" stroke="#053848"></path><path d="M556 540L605 540L592 488Z" fill="#033f4f" stroke="#033f4f"></path><path d="M214 150L182 201L261 172Z" fill="#033f4f" stroke="#033f4f"></path><path d="M94 347L141 386L206 337Z" fill="#024756" stroke="#024756"></path><path d="M97 189L182 201L89 144Z" fill="#014e5d" stroke="#014e5d"></path><path d="M754 325L768 223L741 227Z" fill="#024756" stroke="#024756"></path><path d="M304 475L324 540L361 452Z" fill="#00101c" stroke="#00101c"></path><path d="M236 487L324 540L304 475Z" fill="#033f4f" stroke="#033f4f"></path><path d="M236 487L304 475L254 416Z" fill="#005663" stroke="#005663"></path><path d="M455 0L335 0L355 59Z" fill="#014e5d" stroke="#014e5d"></path><path d="M308 59L260 37L302 87Z" fill="#051723" stroke="#051723"></path><path d="M708 499L744 420L682 473Z" fill="#00101c" stroke="#00101c"></path><path d="M682 473L744 420L688 404Z" fill="#014e5d" stroke="#014e5d"></path><path d="M754 325L803 317L768 223Z" fill="#00101c" stroke="#00101c"></path><path d="M737 95L625 83L697 149Z" fill="#072432" stroke="#072432"></path><path d="M91 240L159 236L97 189Z" fill="#072432" stroke="#072432"></path><path d="M182 201L159 236L201 271Z" fill="#061d2b" stroke="#061d2b"></path><path d="M254 416L236 375L163 445Z" fill="#00101c" stroke="#00101c"></path><path d="M236 487L254 416L163 445Z" fill="#063141" stroke="#063141"></path><path d="M309 0L260 37L308 59Z" fill="#072a3a" stroke="#072a3a"></path><path d="M227 116L176 56L214 150Z" fill="#033f4f" stroke="#033f4f"></path><path d="M335 0L309 0L308 59Z" fill="#014e5d" stroke="#014e5d"></path><path d="M780 126L742 210L762 211Z" fill="#005663" stroke="#005663"></path><path d="M780 126L737 95L697 149Z" fill="#051723" stroke="#051723"></path><path d="M684 540L708 499L682 473Z" fill="#005663" stroke="#005663"></path><path d="M817 307L803 317L861 378Z" fill="#053848" stroke="#053848"></path><path d="M851 401L803 317L732 370Z" fill="#024756" stroke="#024756"></path><path d="M832 149L780 126L762 211Z" fill="#005663" stroke="#005663"></path><path d="M605 540L684 540L682 473Z" fill="#014e5d" stroke="#014e5d"></path><path d="M141 386L236 375L206 337Z" fill="#024756" stroke="#024756"></path><path d="M236 487L204 540L324 540Z" fill="#005663" stroke="#005663"></path><path d="M838 214L762 211L768 223Z" fill="#072432" stroke="#072432"></path><path d="M737 95L692 0L625 83Z" fill="#051723" stroke="#051723"></path><path d="M851 401L732 370L744 420Z" fill="#024756" stroke="#024756"></path><path d="M803 317L817 307L768 223Z" fill="#024756" stroke="#024756"></path><path d="M95 293L206 337L201 271Z" fill="#072a3a" stroke="#072a3a"></path><path d="M814 0L692 0L737 95Z" fill="#072a3a" stroke="#072a3a"></path><path d="M141 386L163 445L236 375Z" fill="#072432" stroke="#072432"></path><path d="M812 488L778 459L774 540Z" fill="#072432" stroke="#072432"></path><path d="M708 499L778 459L744 420Z" fill="#051723" stroke="#051723"></path><path d="M309 0L243 0L260 37Z" fill="#024756" stroke="#024756"></path><path d="M260 37L176 56L227 116Z" fill="#053848" stroke="#053848"></path><path d="M684 540L712 540L708 499Z" fill="#063141" stroke="#063141"></path><path d="M211 0L176 56L260 37Z" fill="#072a3a" stroke="#072a3a"></path><path d="M159 236L95 293L201 271Z" fill="#00101c" stroke="#00101c"></path><path d="M817 307L838 214L768 223Z" fill="#024756" stroke="#024756"></path><path d="M812 488L804 451L778 459Z" fill="#033f4f" stroke="#033f4f"></path><path d="M778 459L804 451L744 420Z" fill="#051723" stroke="#051723"></path><path d="M817 307L867 249L838 214Z" fill="#051723" stroke="#051723"></path><path d="M157 540L204 540L212 493Z" fill="#072432" stroke="#072432"></path><path d="M212 493L204 540L236 487Z" fill="#061d2b" stroke="#061d2b"></path><path d="M91 240L95 293L159 236Z" fill="#014e5d" stroke="#014e5d"></path><path d="M50 412L97 501L163 445Z" fill="#00101c" stroke="#00101c"></path><path d="M163 445L157 540L212 493Z" fill="#00101c" stroke="#00101c"></path><path d="M243 0L211 0L260 37Z" fill="#061d2b" stroke="#061d2b"></path><path d="M838 214L832 149L762 211Z" fill="#061d2b" stroke="#061d2b"></path><path d="M780 126L808 78L737 95Z" fill="#014e5d" stroke="#014e5d"></path><path d="M97 189L159 236L182 201Z" fill="#053848" stroke="#053848"></path><path d="M89 144L182 201L214 150Z" fill="#005663" stroke="#005663"></path><path d="M60 334L94 347L95 293Z" fill="#024756" stroke="#024756"></path><path d="M95 293L94 347L206 337Z" fill="#033f4f" stroke="#033f4f"></path><path d="M832 149L808 78L780 126Z" fill="#072a3a" stroke="#072a3a"></path><path d="M838 214L867 155L832 149Z" fill="#033f4f" stroke="#033f4f"></path><path d="M832 149L860 86L808 78Z" fill="#072432" stroke="#072432"></path><path d="M908 295L867 249L817 307Z" fill="#033f4f" stroke="#033f4f"></path><path d="M804 451L851 401L744 420Z" fill="#063141" stroke="#063141"></path><path d="M774 540L778 459L708 499Z" fill="#072a3a" stroke="#072a3a"></path><path d="M865 490L891 420L851 401Z" fill="#033f4f" stroke="#033f4f"></path><path d="M712 540L774 540L708 499Z" fill="#053848" stroke="#053848"></path><path d="M851 401L861 378L803 317Z" fill="#014e5d" stroke="#014e5d"></path><path d="M97 189L77 198L91 240Z" fill="#024756" stroke="#024756"></path><path d="M41 290L60 334L95 293Z" fill="#061d2b" stroke="#061d2b"></path><path d="M89 144L77 198L97 189Z" fill="#072432" stroke="#072432"></path><path d="M89 144L214 150L108 89Z" fill="#005663" stroke="#005663"></path><path d="M108 89L214 150L176 56Z" fill="#061d2b" stroke="#061d2b"></path><path d="M96 0L108 89L176 56Z" fill="#061d2b" stroke="#061d2b"></path><path d="M896 164L867 155L838 214Z" fill="#033f4f" stroke="#033f4f"></path><path d="M908 295L960 366L960 309Z" fill="#072432" stroke="#072432"></path><path d="M891 420L879 346L861 378Z" fill="#014e5d" stroke="#014e5d"></path><path d="M861 378L879 346L817 307Z" fill="#00101c" stroke="#00101c"></path><path d="M867 249L896 164L838 214Z" fill="#00101c" stroke="#00101c"></path><path d="M97 501L157 540L163 445Z" fill="#051723" stroke="#051723"></path><path d="M41 290L95 293L91 240Z" fill="#061d2b" stroke="#061d2b"></path><path d="M50 412L163 445L141 386Z" fill="#00101c" stroke="#00101c"></path><path d="M867 155L860 86L832 149Z" fill="#072432" stroke="#072432"></path><path d="M808 78L814 0L737 95Z" fill="#051723" stroke="#051723"></path><path d="M89 144L62 143L77 198Z" fill="#072432" stroke="#072432"></path><path d="M27 267L41 290L91 240Z" fill="#051723" stroke="#051723"></path><path d="M108 89L62 143L89 144Z" fill="#063141" stroke="#063141"></path><path d="M27 267L91 240L77 198Z" fill="#072a3a" stroke="#072a3a"></path><path d="M891 420L861 378L851 401Z" fill="#063141" stroke="#063141"></path><path d="M879 346L908 295L817 307Z" fill="#014e5d" stroke="#014e5d"></path><path d="M867 155L909 132L860 86Z" fill="#024756" stroke="#024756"></path><path d="M960 226L896 164L867 249Z" fill="#072432" stroke="#072432"></path><path d="M868 74L814 0L808 78Z" fill="#072a3a" stroke="#072a3a"></path><path d="M50 412L141 386L94 347Z" fill="#014e5d" stroke="#014e5d"></path><path d="M50 412L94 347L60 334Z" fill="#005663" stroke="#005663"></path><path d="M909 132L868 74L860 86Z" fill="#051723" stroke="#051723"></path><path d="M860 86L868 74L808 78Z" fill="#014e5d" stroke="#014e5d"></path><path d="M865 490L851 401L804 451Z" fill="#051723" stroke="#051723"></path><path d="M865 490L804 451L812 488Z" fill="#00101c" stroke="#00101c"></path><path d="M0 365L50 412L60 334Z" fill="#053848" stroke="#053848"></path><path d="M0 217L27 267L77 198Z" fill="#00101c" stroke="#00101c"></path><path d="M41 290L0 311L60 334Z" fill="#072a3a" stroke="#072a3a"></path><path d="M841 540L865 490L812 488Z" fill="#072432" stroke="#072432"></path><path d="M78 540L106 540L97 501Z" fill="#053848" stroke="#053848"></path><path d="M97 501L106 540L157 540Z" fill="#033f4f" stroke="#033f4f"></path><path d="M774 540L841 540L812 488Z" fill="#033f4f" stroke="#033f4f"></path><path d="M960 143L909 132L896 164Z" fill="#033f4f" stroke="#033f4f"></path><path d="M896 164L909 132L867 155Z" fill="#033f4f" stroke="#033f4f"></path><path d="M211 0L96 0L176 56Z" fill="#053848" stroke="#053848"></path><path d="M108 89L39 31L62 143Z" fill="#005663" stroke="#005663"></path><path d="M0 217L0 311L27 267Z" fill="#061d2b" stroke="#061d2b"></path><path d="M50 412L45 466L97 501Z" fill="#072432" stroke="#072432"></path><path d="M0 423L45 466L50 412Z" fill="#072432" stroke="#072432"></path><path d="M0 217L77 198L0 167Z" fill="#005663" stroke="#005663"></path><path d="M27 267L0 311L41 290Z" fill="#00101c" stroke="#00101c"></path><path d="M887 0L860 0L868 74Z" fill="#053848" stroke="#053848"></path><path d="M868 74L860 0L814 0Z" fill="#053848" stroke="#053848"></path><path d="M45 466L78 540L97 501Z" fill="#072432" stroke="#072432"></path><path d="M0 167L77 198L62 143Z" fill="#063141" stroke="#063141"></path><path d="M841 540L871 540L865 490Z" fill="#063141" stroke="#063141"></path><path d="M960 511L960 409L891 420Z" fill="#072432" stroke="#072432"></path><path d="M0 311L0 365L60 334Z" fill="#053848" stroke="#053848"></path><path d="M0 154L0 167L62 143Z" fill="#053848" stroke="#053848"></path><path d="M0 47L0 154L62 143Z" fill="#053848" stroke="#053848"></path><path d="M960 366L908 295L879 346Z" fill="#051723" stroke="#051723"></path><path d="M908 295L960 226L867 249Z" fill="#072a3a" stroke="#072a3a"></path><path d="M960 366L879 346L891 420Z" fill="#005663" stroke="#005663"></path><path d="M960 309L960 226L908 295Z" fill="#00101c" stroke="#00101c"></path><path d="M960 88L887 0L868 74Z" fill="#072a3a" stroke="#072a3a"></path><path d="M0 365L0 423L50 412Z" fill="#00101c" stroke="#00101c"></path><path d="M45 466L0 540L78 540Z" fill="#033f4f" stroke="#033f4f"></path><path d="M960 409L960 366L891 420Z" fill="#005663" stroke="#005663"></path><path d="M960 226L960 181L896 164Z" fill="#053848" stroke="#053848"></path><path d="M960 88L868 74L909 132Z" fill="#00101c" stroke="#00101c"></path><path d="M96 0L39 31L108 89Z" fill="#033f4f" stroke="#033f4f"></path><path d="M960 181L960 143L896 164Z" fill="#005663" stroke="#005663"></path><path d="M960 511L891 420L865 490Z" fill="#033f4f" stroke="#033f4f"></path><path d="M96 0L43 0L39 31Z" fill="#051723" stroke="#051723"></path><path d="M39 31L0 47L62 143Z" fill="#00101c" stroke="#00101c"></path><path d="M0 423L0 477L45 466Z" fill="#005663" stroke="#005663"></path><path d="M960 143L960 88L909 132Z" fill="#061d2b" stroke="#061d2b"></path><path d="M0 0L0 47L39 31Z" fill="#061d2b" stroke="#061d2b"></path><path d="M871 540L960 511L865 490Z" fill="#033f4f" stroke="#033f4f"></path><path d="M0 477L0 540L45 466Z" fill="#033f4f" stroke="#033f4f"></path><path d="M43 0L0 0L39 31Z" fill="#00101c" stroke="#00101c"></path><path d="M871 540L960 540L960 511Z" fill="#061d2b" stroke="#061d2b"></path><path d="M960 88L960 0L887 0Z" fill="#053848" stroke="#053848"></path></g></svg>